# xmcd CD database file generated by LOLA_Freedb v0.9beta0
# 
# Track frame offsets:
#      150
#      17636
#      41321
#      60197
#      78854
#      100592
#      123125
#      146561
# 
# Disc length: 2248 seconds
# 
# Revision: 0 
# Processed by: cddbd v1.5.2PL0 Copyright (c) Steve Scherf et al.
# Submitted via: LOLA_Freedb v0.9beta0
# 
DISCID=4f08c608
DTITLE=Kid Creole And The Coconuts - Tropical Gangsters
DYEAR=1982
DGENRE=
TTITLE0=Annie, I'm Not Your Daddy
TTITLE1=I'm A Wonderful Thing, Baby
TTITLE2=Irritation
TTITLE3=I'm Corrupt
TTITLE4=Loving You Made A Fool Out Of Me
TTITLE5=Stool Pigeon
TTITLE6=The Love We Have
TTITLE7=No Fish Today
EXTD=Orinignal LP
EXTT0=
EXTT1=
EXTT2=
EXTT3=
EXTT4=
EXTT5=
EXTT6=
EXTT7=
PLAYORDER=
